<svg width="12" height="12" viewBox="0 0 12 12" fill="none" xmlns="http://www.w3.org/2000/svg">
    <path d="M11.4485 4.58593C11.3734 4.3535 11.1672 4.18842 10.9233 4.16644L7.61036 3.86562L6.30032 0.79934C6.20373 0.574621 5.98374 0.429158 5.73932 0.429158C5.49489 0.429158 5.2749 0.574621 5.17831 0.799865L3.86827 3.86562L0.554762 4.16644C0.311303 4.18895 0.105676 4.3535 0.030098 4.58593C-0.0454796 4.81835 0.024318 5.07328 0.208489 5.23398L2.71271 7.4302L1.97427 10.683C1.92024 10.9222 2.01307 11.1694 2.21151 11.3129C2.31818 11.3899 2.44298 11.4292 2.56882 11.4292C2.67733 11.4292 2.78496 11.3999 2.88155 11.3421L5.73932 9.63412L8.59603 11.3421C8.80507 11.4679 9.06858 11.4564 9.26659 11.3129C9.46513 11.169 9.55787 10.9217 9.50383 10.683L8.7654 7.4302L11.2696 5.23442C11.4538 5.07328 11.5241 4.81879 11.4485 4.58593Z" fill="#CDCDCD"/>
    </svg>
    